<svg xmlns="http://www.w3.org/2000/svg" width="10.4" height="13" viewBox="0 0 10.4 13"><g transform="translate(-4 -2)"><path d="M5.3,2A1.309,1.309,0,0,0,4,3.3V13.7A1.309,1.309,0,0,0,5.3,15h7.8a1.309,1.309,0,0,0,1.3-1.3V3.3A1.309,1.309,0,0,0,13.1,2H11.15V3.3H13.1V13.7H5.3V3.3H7.25V2ZM8.55,2V3.3h1.3V2Zm0,1.95v1.3h1.3V3.95Zm0,1.95V7.2h1.3V5.9ZM8.542,7.85,8.349,8.1a8.341,8.341,0,0,0-.526.769A3.015,3.015,0,0,0,7.25,10.45a1.95,1.95,0,1,0,3.9,0,2.93,2.93,0,0,0-.592-1.587,8.955,8.955,0,0,0-.536-.769l-.2-.244Zm.65,1.32a4.256,4.256,0,0,1,.264.376,3.626,3.626,0,0,1,.394.9.65.65,0,1,1-1.3,0,3.624,3.624,0,0,1,.386-.909,4.21,4.21,0,0,1,.254-.373Zm0,0" fill="#636363"/></g></svg>