<svg xmlns="http://www.w3.org/2000/svg" width="167.193" height="49.645" viewBox="0 0 167.193 49.645"><g transform="translate(-343.807 -23.076)"><g transform="translate(-168 -142)"><g transform="translate(517.205 177.444)" fill="#fff" stroke="#218f76" stroke-width="2"><path d="M12,0H33.3a0,0,0,0,1,0,0V22.022a12,12,0,0,1-12,12H12a12,12,0,0,1-12-12V12A12,12,0,0,1,12,0Z" stroke="none"/><path d="M12,1H31.3a1,1,0,0,1,1,1V22.022a11,11,0,0,1-11,11H12a11,11,0,0,1-11-11V12A11,11,0,0,1,12,1Z" fill="none"/></g><line y1="36.918" x2="38.366" transform="translate(512.5 177.082)" fill="none" stroke="#1abc9c" stroke-width="2"/><line y1="46.328" x2="21.716" transform="translate(516.119 165.5)" fill="none" stroke="#1abc9c" stroke-width="2"/><line y1="15.201" x2="47.052" transform="translate(516.119 194.455)" fill="none" stroke="#1abc9c" stroke-width="2"/></g><text transform="translate(511 62)" fill="#2e2e2e" font-size="27" font-family="Montserrat-Bold, Montserrat" font-weight="700" letter-spacing="0.13em"><tspan x="-119.124" y="0">vaTodo</tspan></text></g></svg>