<svg xmlns="http://www.w3.org/2000/svg" width="12.5" height="12.5" viewBox="0 0 12.5 12.5"><g transform="translate(-2 -2)"><path d="M8.25,2A6.25,6.25,0,1,0,14.5,8.25,6.254,6.254,0,0,0,8.25,2Zm-.272.55V5a3.241,3.241,0,0,0-1.831.759L4.415,4.031A5.678,5.678,0,0,1,7.978,2.55Zm.543.006a5.677,5.677,0,0,1,3.563,1.474L10.354,5.763A3.251,3.251,0,0,0,8.522,5ZM4.031,4.415,5.763,6.146A3.242,3.242,0,0,0,5,7.978H2.551A5.671,5.671,0,0,1,4.031,4.415Zm8.439,0a5.677,5.677,0,0,1,1.474,3.563H11.5a3.245,3.245,0,0,0-.762-1.831ZM8.25,5.533A2.717,2.717,0,1,1,5.533,8.25,2.713,2.713,0,0,1,8.25,5.533ZM2.55,8.522H5a3.241,3.241,0,0,0,.759,1.831L4.031,12.085A5.678,5.678,0,0,1,2.55,8.522Zm8.947,0h2.452a5.671,5.671,0,0,1-1.48,3.563l-1.732-1.731A3.242,3.242,0,0,0,11.5,8.522Zm-5.35,2.215a3.235,3.235,0,0,0,1.831.76v2.452a5.671,5.671,0,0,1-3.563-1.48Zm4.206,0,1.732,1.732a5.671,5.671,0,0,1-3.563,1.48V11.5A3.235,3.235,0,0,0,10.353,10.737Zm0,0" fill="#636363"/></g></svg>