<svg xmlns="http://www.w3.org/2000/svg" width="14.219" height="17.645" viewBox="0 0 14.219 17.645"><path d="M15.566,2A9.426,9.426,0,0,0,7.157,6.411,8.993,8.993,0,0,0,6.3,13.332a8.333,8.333,0,0,0,4.083,5.12,10.447,10.447,0,0,0,4.8,1.193,8.192,8.192,0,0,0,4.823-1.564.4.4,0,0,0-.225-.731,8.015,8.015,0,0,1-4.148-1.527,15.317,15.317,0,0,1-3.712-.014,2.945,2.945,0,0,1-2.116-1.894c1.441,1.055,3.229.776,4.38.745a4.562,4.562,0,0,1-.82-1l.871-.581a.38.38,0,0,0,.171-.349.385.385,0,0,0-.225-.319,2.968,2.968,0,0,1-.7-.514,1.482,1.482,0,0,0,.282-.447,4.855,4.855,0,0,0,.271-1.777.384.384,0,0,0-.384-.388H12.5v.767H12.09c-.082,1.278-.533,1.94-1.133,1.94s-1.056-.647-1.134-1.94H8.278a.384.384,0,1,1,0-.767h4.231a8.582,8.582,0,0,1,3.274-6.549.4.4,0,0,0,.165-.433A.442.442,0,0,0,15.566,2Z" transform="translate(-5.961 -2)"/></svg>