<svg xmlns="http://www.w3.org/2000/svg" xmlns:xlink="http://www.w3.org/1999/xlink" width="386.898" height="29.155" viewBox="0 0 386.898 29.155"><defs><clipPath id="a"><rect width="386.898" height="29.155" fill="none"/></clipPath></defs><g clip-path="url(#a)"><g transform="translate(-345.205 -166.444)"><g transform="translate(-7 -12)" opacity="0.73"><rect width="12.602" height="12.876" rx="6.301" transform="translate(352.205 179.584)" fill="#78d7c5" opacity="0.24"/><rect width="12.602" height="12.876" rx="6.301" transform="translate(366.965 179.584)" fill="#78d7c5" opacity="0.24"/><rect width="12.602" height="12.876" rx="6.301" transform="translate(381.726 179.584)" fill="#78d7c5" opacity="0.24"/><rect width="12.602" height="12.876" rx="6.301" transform="translate(396.486 179.584)" fill="#78d7c5" opacity="0.24"/><rect width="12.602" height="12.876" rx="6.301" transform="translate(411.246 179.584)" fill="#78d7c5" opacity="0.24"/><rect width="12.602" height="12.876" rx="6.301" transform="translate(426.007 179.584)" fill="#78d7c5" opacity="0.24"/><rect width="12.602" height="12.876" rx="6.301" transform="translate(455.527 179.584)" fill="#78d7c5" opacity="0.5"/><rect width="12.602" height="12.876" rx="6.301" transform="translate(470.288 179.584)" fill="#78d7c5" opacity="0.5"/><path d="M3.785,0H8.818A3.785,3.785,0,0,1,12.6,3.785V9.092a3.785,3.785,0,0,1-3.785,3.785H3.785A3.785,3.785,0,0,1,0,9.092V3.785A3.785,3.785,0,0,1,3.785,0Z" transform="translate(485.048 179.584)" fill="#effbf8" opacity="0.8"/><rect width="12.602" height="12.876" rx="6.301" transform="translate(499.808 179.584)" fill="#dff6f1" opacity="0.8"/><rect width="12.602" height="12.876" rx="6.301" transform="translate(514.568 179.584)" fill="#78d7c5" opacity="0.49"/><rect width="12.602" height="12.876" rx="6.301" transform="translate(529.329 179.584)" fill="#78d7c5" opacity="0.49"/><rect width="12.602" height="12.876" rx="6.301" transform="translate(544.089 179.584)" fill="#90decf" opacity="0.49"/><rect width="12.602" height="12.876" rx="6.301" transform="translate(558.849 179.584)" fill="#78d7c5" opacity="0.28"/><rect width="12.602" height="12.876" rx="6.301" transform="translate(352.205 194.723)" fill="#78d7c5" opacity="0.5"/><rect width="12.602" height="12.876" rx="6.301" transform="translate(366.965 194.723)" fill="#78d7c5" opacity="0.5"/><rect width="12.602" height="12.876" rx="6.301" transform="translate(381.726 194.723)" fill="#78d7c5" opacity="0.5"/><rect width="12.602" height="12.876" rx="6.301" transform="translate(396.486 194.723)" fill="#78d7c5"/><rect width="12.602" height="12.876" rx="6.301" transform="translate(411.246 194.723)" fill="#78d7c5" opacity="0.42"/><rect width="12.602" height="12.876" rx="6.301" transform="translate(426.007 194.723)" fill="#effbf8"/><rect width="12.602" height="12.876" rx="6.301" transform="translate(440.767 194.723)" fill="#effbf8"/><rect width="12.602" height="12.876" rx="6.301" transform="translate(455.527 194.723)" fill="#effbf8"/><rect width="12.602" height="12.876" rx="6.301" transform="translate(337.707 178.333)" fill="#78d7c5" opacity="0.83"/><rect width="12.602" height="12.876" rx="6.301" transform="translate(470.288 194.723)" fill="#effbf8"/><rect width="12.602" height="12.876" rx="6.301" transform="translate(485.048 194.723)" fill="#effbf8"/><rect width="12.602" height="12.876" rx="6.301" transform="translate(499.808 194.723)" fill="#effbf8"/><rect width="12.602" height="12.876" rx="6.301" transform="translate(514.568 194.723)" fill="#effbf8"/><rect width="12.602" height="12.876" rx="6.301" transform="translate(529.329 194.723)" fill="#effbf8"/><rect width="12.602" height="12.876" rx="6.301" transform="translate(544.089 194.723)" fill="#effbf8"/><rect width="12.602" height="12.876" rx="6.301" transform="translate(558.849 194.723)" fill="#78d7c5"/><rect width="12.602" height="12.876" rx="6.301" transform="translate(576.22 178.444)" fill="#dff6f1" opacity="0.49"/><rect width="12.602" height="12.876" rx="6.301" transform="translate(590.98 178.444)" fill="#78d7c5" opacity="0.37"/><rect width="12.602" height="12.876" rx="6.301" transform="translate(605.74 178.444)" fill="#78d7c5"/><rect width="12.602" height="12.876" rx="6.301" transform="translate(576.22 193.583)" fill="#78d7c5"/><rect width="12.602" height="12.876" rx="6.301" transform="translate(590.98 193.583)" fill="#78d7c5" opacity="0.37"/><rect width="12.602" height="12.876" rx="6.301" transform="translate(605.74 193.583)" fill="#78d7c5"/><rect width="12.602" height="12.876" rx="6.301" transform="translate(620.501 193.583)" fill="#78d7c5"/></g></g><g transform="translate(-61.205 -166.444)"><g transform="translate(-7 -12)" opacity="0.73"><rect width="12.602" height="12.876" rx="6.301" transform="translate(352.205 179.584)" fill="#78d7c5" opacity="0.24"/><rect width="12.602" height="12.876" rx="6.301" transform="translate(366.965 179.584)" fill="#78d7c5" opacity="0.24"/><rect width="12.602" height="12.876" rx="6.301" transform="translate(381.726 179.584)" fill="#78d7c5" opacity="0.24"/><rect width="12.602" height="12.876" rx="6.301" transform="translate(396.486 179.584)" fill="#78d7c5" opacity="0.24"/><rect width="12.602" height="12.876" rx="6.301" transform="translate(411.246 179.584)" fill="#78d7c5" opacity="0.24"/><rect width="12.602" height="12.876" rx="6.301" transform="translate(426.007 179.584)" fill="#78d7c5" opacity="0.24"/><rect width="12.602" height="12.876" rx="6.301" transform="translate(455.527 179.584)" fill="#78d7c5" opacity="0.5"/><rect width="12.602" height="12.876" rx="6.301" transform="translate(470.288 179.584)" fill="#78d7c5" opacity="0.5"/><path d="M3.785,0H8.818A3.785,3.785,0,0,1,12.6,3.785V9.092a3.785,3.785,0,0,1-3.785,3.785H3.785A3.785,3.785,0,0,1,0,9.092V3.785A3.785,3.785,0,0,1,3.785,0Z" transform="translate(485.048 179.584)" fill="#effbf8" opacity="0.8"/><rect width="12.602" height="12.876" rx="6.301" transform="translate(499.808 179.584)" fill="#dff6f1" opacity="0.8"/><rect width="12.602" height="12.876" rx="6.301" transform="translate(514.568 179.584)" fill="#78d7c5" opacity="0.49"/><rect width="12.602" height="12.876" rx="6.301" transform="translate(529.329 179.584)" fill="#78d7c5" opacity="0.49"/><rect width="12.602" height="12.876" rx="6.301" transform="translate(544.089 179.584)" fill="#90decf" opacity="0.49"/><rect width="12.602" height="12.876" rx="6.301" transform="translate(558.849 179.584)" fill="#78d7c5" opacity="0.28"/><rect width="12.602" height="12.876" rx="6.301" transform="translate(352.205 194.723)" fill="#78d7c5" opacity="0.5"/><rect width="12.602" height="12.876" rx="6.301" transform="translate(366.965 194.723)" fill="#78d7c5" opacity="0.5"/><rect width="12.602" height="12.876" rx="6.301" transform="translate(381.726 194.723)" fill="#78d7c5" opacity="0.5"/><rect width="12.602" height="12.876" rx="6.301" transform="translate(396.486 194.723)" fill="#78d7c5"/><rect width="12.602" height="12.876" rx="6.301" transform="translate(411.246 194.723)" fill="#78d7c5" opacity="0.42"/><rect width="12.602" height="12.876" rx="6.301" transform="translate(426.007 194.723)" fill="#effbf8"/><rect width="12.602" height="12.876" rx="6.301" transform="translate(440.767 194.723)" fill="#effbf8"/><rect width="12.602" height="12.876" rx="6.301" transform="translate(455.527 194.723)" fill="#effbf8"/><rect width="12.602" height="12.876" rx="6.301" transform="translate(337.707 178.333)" fill="#78d7c5" opacity="0.83"/><rect width="12.602" height="12.876" rx="6.301" transform="translate(470.288 194.723)" fill="#effbf8"/><rect width="12.602" height="12.876" rx="6.301" transform="translate(485.048 194.723)" fill="#effbf8"/><rect width="12.602" height="12.876" rx="6.301" transform="translate(499.808 194.723)" fill="#effbf8"/><rect width="12.602" height="12.876" rx="6.301" transform="translate(514.568 194.723)" fill="#effbf8"/><rect width="12.602" height="12.876" rx="6.301" transform="translate(529.329 194.723)" fill="#effbf8"/><rect width="12.602" height="12.876" rx="6.301" transform="translate(544.089 194.723)" fill="#effbf8"/><rect width="12.602" height="12.876" rx="6.301" transform="translate(558.849 194.723)" fill="#78d7c5"/><rect width="12.602" height="12.876" rx="6.301" transform="translate(576.22 178.444)" fill="#dff6f1" opacity="0.49"/><rect width="12.602" height="12.876" rx="6.301" transform="translate(590.98 178.444)" fill="#78d7c5" opacity="0.37"/><rect width="12.602" height="12.876" rx="6.301" transform="translate(605.74 178.444)" fill="#78d7c5"/><rect width="12.602" height="12.876" rx="6.301" transform="translate(576.22 193.583)" fill="#78d7c5"/><rect width="12.602" height="12.876" rx="6.301" transform="translate(590.98 193.583)" fill="#78d7c5" opacity="0.37"/><rect width="12.602" height="12.876" rx="6.301" transform="translate(605.74 193.583)" fill="#78d7c5"/><rect width="12.602" height="12.876" rx="6.301" transform="translate(620.501 193.583)" fill="#78d7c5"/></g></g></g></svg>