<svg xmlns="http://www.w3.org/2000/svg" width="57" height="28" viewBox="0 0 57 28"><g transform="translate(553 811)" fill="none"><path d="M-524.5-783a28.758,28.758,0,0,1-11.093-2.2,28.439,28.439,0,0,1-9.059-6,27.886,27.886,0,0,1-6.108-8.9A27.4,27.4,0,0,1-553-811h57a27.4,27.4,0,0,1-2.24,10.9,27.886,27.886,0,0,1-6.108,8.9,28.44,28.44,0,0,1-9.059,6A28.759,28.759,0,0,1-524.5-783Z" stroke="none"/><path d="M -524.5001831054688 -784.4000244140625 C -520.8380126953125 -784.4000244140625 -517.286376953125 -785.104248046875 -513.9439086914063 -786.4932250976563 C -510.7162780761719 -787.83447265625 -507.8176574707031 -789.75439453125 -505.3286437988281 -792.1996459960938 C -502.8413391113281 -794.643310546875 -500.8888854980469 -797.488037109375 -499.5255126953125 -800.65478515625 C -498.2991943359375 -803.5031127929688 -497.5985107421875 -806.505859375 -497.4364318847656 -809.5999145507813 L -551.5631103515625 -809.5999145507813 C -551.4010620117188 -806.505859375 -550.7003784179688 -803.5031127929688 -549.4741821289063 -800.6547241210938 C -548.1109008789063 -797.488037109375 -546.1585083007813 -794.6433715820313 -543.6713256835938 -792.1996459960938 C -541.1823120117188 -789.7543334960938 -538.2838134765625 -787.8344116210938 -535.0563354492188 -786.4932250976563 C -531.7139892578125 -785.104248046875 -528.1624145507813 -784.4000244140625 -524.5001831054688 -784.4000244140625 M -524.5001831054688 -783 C -528.3477172851563 -783 -532.0800170898438 -783.7402954101563 -535.5935668945313 -785.2003784179688 C -538.9873046875 -786.6106567382813 -542.03515625 -788.6295776367188 -544.6524658203125 -791.2009887695313 C -547.2697143554688 -793.7724609375 -549.3246459960938 -796.7669067382813 -550.7600708007813 -800.1011352539063 C -552.2461547851563 -803.5531616210938 -552.9996337890625 -807.2200317382813 -552.9996337890625 -810.9999389648438 L -495.9999084472656 -810.9999389648438 C -495.9999084472656 -807.2188720703125 -496.7537841796875 -803.5523071289063 -498.2396240234375 -800.1011352539063 C -499.6751098632813 -796.7669067382813 -501.7301025390625 -793.7724609375 -504.3475036621094 -791.2009887695313 C -506.9649658203125 -788.6295166015625 -510.0129089355469 -786.6106567382813 -513.4066772460938 -785.2003784179688 C -516.9203491210938 -783.7402954101563 -520.6527099609375 -783 -524.5001831054688 -783 Z" stroke="none" fill="#fb1580"/></g></svg>