<svg xmlns="http://www.w3.org/2000/svg" width="13.105" height="13.105" viewBox="0 0 13.105 13.105"><path d="M10.552,4A6.552,6.552,0,1,0,17.1,10.552,6.552,6.552,0,0,0,10.552,4Z" transform="translate(-4 -4)" fill="#ff3e4d"/><path d="M9.635,36.8a5.367,5.367,0,0,1-4.4-4.472A1.164,1.164,0,0,0,4,31.347c0,.05,0,.1,0,.151a6.552,6.552,0,0,0,6.552,6.552H10.6A1.166,1.166,0,0,0,9.635,36.8Z" transform="translate(-4 -24.945)" fill="#ff007c"/><path d="M39.77,13.372a.234.234,0,0,1-.231-.2,5.188,5.188,0,0,0-.179-.8.234.234,0,0,1,.447-.139,5.635,5.635,0,0,1,.2.871.234.234,0,0,1-.2.265A.2.2,0,0,1,39.77,13.372ZM39.291,11.8a.234.234,0,0,1-.211-.132,5.152,5.152,0,0,0-3.7-2.819.234.234,0,1,1,.084-.46A5.623,5.623,0,0,1,39.5,11.46a.234.234,0,0,1-.211.336Z" transform="translate(-27.89 -7.355)" fill="#fff"/><path d="M7.585,35.164a.234.234,0,0,1-.038-.465l.462-.077a.234.234,0,0,1,.077.462l-.462.077A.246.246,0,0,1,7.585,35.164Zm.306,1.117a.234.234,0,0,1-.085-.452l.436-.17a.234.234,0,1,1,.17.436l-.436.17A.233.233,0,0,1,7.891,36.28Zm.529,1.03a.234.234,0,0,1-.128-.43l.392-.256a.234.234,0,1,1,.256.392l-.392.256A.234.234,0,0,1,8.42,37.311Zm.728.9a.234.234,0,0,1-.165-.4l.331-.331a.234.234,0,1,1,.331.331l-.331.331A.233.233,0,0,1,9.148,38.212Zm.9.728a.234.234,0,0,1-.2-.362l.256-.392a.234.234,0,1,1,.392.256l-.256.392A.233.233,0,0,1,10.049,38.94Zm1.03.529a.231.231,0,0,1-.085-.016.234.234,0,0,1-.133-.3l.17-.436a.234.234,0,1,1,.436.17l-.17.436A.234.234,0,0,1,11.079,39.469Zm1.117.306a.219.219,0,0,1-.039,0,.234.234,0,0,1-.193-.269l.077-.462a.234.234,0,0,1,.462.077l-.077.462A.234.234,0,0,1,12.2,39.774Z" transform="translate(-6.567 -27.454)" fill="#78d7c5"/></svg>