<svg xmlns="http://www.w3.org/2000/svg" width="20.684" height="19.945" viewBox="0 0 20.684 19.945"><path d="M12.015,4a1.731,1.731,0,0,0-1.293.554L8.248,7.028a1.882,1.882,0,0,0-.554,1.293v3.8H7.028a1.086,1.086,0,0,0-1,.628L4.185,16.447A2.155,2.155,0,0,0,4,17.261v5.576a1.089,1.089,0,0,0,1.108,1.108H23.576a1.089,1.089,0,0,0,1.108-1.108V17.261a2.155,2.155,0,0,0-.185-.814l-1.847-3.694a1.112,1.112,0,0,0-1-.628H20.99V5.108A1.089,1.089,0,0,0,19.882,4Zm.111.739h7.756a.348.348,0,0,1,.369.369V16.189a.369.369,0,0,0,.739,0V12.864h.665a.354.354,0,0,1,.332.221l1.847,3.694a1.19,1.19,0,0,1,.111.518H17.592a1.006,1.006,0,0,0-.776.333l-1.033,1.033a.34.34,0,0,1-.26.111H12.459a.338.338,0,0,1-.26-.111L11.166,17.63a1.214,1.214,0,0,0-.814-.333H4.739v-.036a1.036,1.036,0,0,1,.111-.482L6.7,13.085a.426.426,0,0,1,.332-.221h.665v3.324a.369.369,0,0,0,.739,0V8.432h2.585a1.089,1.089,0,0,0,1.108-1.108Zm-.7.147V7.324a.348.348,0,0,1-.369.369h-2.4c0-.074.037-.111.113-.185l2.473-2.474A.825.825,0,0,1,11.423,4.886ZM10.279,9.91a.369.369,0,1,0,0,.739h4.432a.369.369,0,1,0,0-.739Zm5.91,0a.369.369,0,1,0,0,.739H18.4a.369.369,0,1,0,0-.739Zm-5.91,1.477a.369.369,0,1,0,0,.739h6.279a.369.369,0,0,0,0-.739Zm0,1.477a.369.369,0,1,0,0,.739h4.8a.369.369,0,0,0,0-.739Zm-5.54,5.171h5.614a.34.34,0,0,1,.26.111l1.033,1.033a1.064,1.064,0,0,0,.776.333h3.064a1.006,1.006,0,0,0,.776-.333L17.3,18.146a.335.335,0,0,1,.258-.111h6.39v4.8a.348.348,0,0,1-.369.369H5.108a.348.348,0,0,1-.369-.369Zm1.108,2.216a.348.348,0,0,0-.369.369v.739a.369.369,0,1,0,.739,0v-.739A.348.348,0,0,0,5.847,20.251Zm1.847,0a.348.348,0,0,0-.369.369v.739a.369.369,0,1,0,.739,0v-.739A.348.348,0,0,0,7.694,20.251Zm1.847,0a.348.348,0,0,0-.369.369v.739a.369.369,0,1,0,.739,0v-.739A.348.348,0,0,0,9.54,20.251Zm1.847,0a.348.348,0,0,0-.369.369v.739a.369.369,0,1,0,.739,0v-.739A.348.348,0,0,0,11.387,20.251Zm1.847,0a.348.348,0,0,0-.369.369v.739a.369.369,0,1,0,.739,0v-.739A.348.348,0,0,0,13.234,20.251Zm2.216,0a.348.348,0,0,0-.369.369v.739a.369.369,0,1,0,.739,0v-.739A.348.348,0,0,0,15.45,20.251Zm1.847,0a.348.348,0,0,0-.369.369v.739a.369.369,0,1,0,.739,0v-.739A.348.348,0,0,0,17.3,20.251Zm1.847,0a.348.348,0,0,0-.369.369v.739a.369.369,0,1,0,.739,0v-.739A.348.348,0,0,0,19.143,20.251Zm1.847,0a.348.348,0,0,0-.369.369v.739a.369.369,0,1,0,.739,0v-.739A.348.348,0,0,0,20.99,20.251Zm1.847,0a.348.348,0,0,0-.369.369v.739a.369.369,0,0,0,.739,0v-.739A.348.348,0,0,0,22.837,20.251Z" transform="translate(-4 -4)" fill="#373737"/></svg>