<svg xmlns="http://www.w3.org/2000/svg" width="20.305" height="18.855" viewBox="0 0 20.305 18.855"><path d="M5.088,6A1.09,1.09,0,0,0,4,7.088v16.68a1.09,1.09,0,0,0,1.088,1.088h18.13a1.09,1.09,0,0,0,1.088-1.088V7.088A1.09,1.09,0,0,0,23.218,6Zm0,.725h18.13a.363.363,0,0,1,.363.363v16.68a.363.363,0,0,1-.363.363H5.088a.363.363,0,0,1-.363-.363V7.088A.363.363,0,0,1,5.088,6.725ZM17.025,9.354a1.092,1.092,0,0,0-.771.319l-5.534,5.535a.719.719,0,0,0-.212.513v1.538a.727.727,0,0,0,.725.725h1.538a.722.722,0,0,0,.514-.212l4-4a.362.362,0,1,0-.513-.511l-4,4H11.234V15.721l5.535-5.534a.361.361,0,0,1,.513,0l2.051,2.051a.361.361,0,0,1,0,.511l-6.2,6.2a.362.362,0,0,1-.256.106H9.8a.363.363,0,0,1-.363-.363V15.615a.365.365,0,0,1,.106-.256L14.2,10.7a.362.362,0,0,0-.511-.511l-4.66,4.659a1.081,1.081,0,0,0-.319.769v3.076A1.09,1.09,0,0,0,9.8,19.779h3.076a1.081,1.081,0,0,0,.769-.319l6.2-6.2a1.089,1.089,0,0,0,0-1.54L17.794,9.673A1.1,1.1,0,0,0,17.025,9.354ZM5.813,21.954a.363.363,0,0,0-.363.363v.725a.363.363,0,1,0,.725,0v-.725A.363.363,0,0,0,5.813,21.954Zm1.813,0a.363.363,0,0,0-.363.363v.725a.363.363,0,1,0,.725,0v-.725A.363.363,0,0,0,7.626,21.954Zm1.813,0a.363.363,0,0,0-.363.363v.725a.363.363,0,1,0,.725,0v-.725A.363.363,0,0,0,9.439,21.954Zm1.813,0a.363.363,0,0,0-.363.363v.725a.363.363,0,1,0,.725,0v-.725A.363.363,0,0,0,11.252,21.954Zm1.813,0a.363.363,0,0,0-.363.363v.725a.363.363,0,1,0,.725,0v-.725A.363.363,0,0,0,13.065,21.954Zm1.813,0a.363.363,0,0,0-.363.363v.725a.363.363,0,1,0,.725,0v-.725A.363.363,0,0,0,14.878,21.954Zm1.813,0a.363.363,0,0,0-.363.363v.725a.363.363,0,1,0,.725,0v-.725A.363.363,0,0,0,16.691,21.954Zm1.813,0a.363.363,0,0,0-.363.363v.725a.363.363,0,1,0,.725,0v-.725A.363.363,0,0,0,18.5,21.954Zm1.813,0a.363.363,0,0,0-.363.363v.725a.363.363,0,1,0,.725,0v-.725A.363.363,0,0,0,20.317,21.954Zm1.813,0a.363.363,0,0,0-.363.363v.725a.363.363,0,1,0,.725,0v-.725A.363.363,0,0,0,22.13,21.954Z" transform="translate(-4 -6)" fill="#373737"/></svg>