<svg xmlns="http://www.w3.org/2000/svg" width="21.56" height="12.4" viewBox="0 0 21.56 12.4"><path d="M6.382,14a1.665,1.665,0,0,0-1.249.564L.92,19.339a1,1,0,0,0,0,1.323l4.214,4.775A1.665,1.665,0,0,0,6.382,26H20.114a1.668,1.668,0,0,0,1.667-1.667V15.667A1.668,1.668,0,0,0,20.114,14Zm0,.667H20.114a1,1,0,0,1,1,1v8.667a1,1,0,0,1-1,1H6.382a1,1,0,0,1-.749-.339L1.42,20.22a.333.333,0,0,1,0-.44l4.214-4.775A1,1,0,0,1,6.382,14.667Zm13.065.667a.333.333,0,1,0,0,.667h.667a.333.333,0,0,0,0-.667Zm0,1.667a.333.333,0,1,0,0,.667h.667a.333.333,0,0,0,0-.667Zm0,1.667a.333.333,0,1,0,0,.667h.667a.333.333,0,0,0,0-.667Zm-12.667.667A.667.667,0,1,0,7.447,20,.666.666,0,0,0,6.781,19.333Zm3,0a.667.667,0,1,0,.667.667A.666.666,0,0,0,9.781,19.333Zm3,0a.667.667,0,1,0,.667.667A.666.666,0,0,0,12.781,19.333Zm3,0a.667.667,0,1,0,.667.667A.666.666,0,0,0,15.781,19.333Zm3.667,1.333a.333.333,0,1,0,0,.667h.667a.333.333,0,0,0,0-.667Zm0,1.667a.333.333,0,1,0,0,.667h.667a.333.333,0,0,0,0-.667Zm0,1.667a.333.333,0,1,0,0,.667h.667a.333.333,0,0,0,0-.667Z" transform="translate(-0.421 -13.8)" fill="#1abc9c" stroke="#1abc9c" stroke-width="0.4"/></svg>