<svg xmlns="http://www.w3.org/2000/svg" width="20.828" height="20.828" viewBox="0 0 20.828 20.828"><g transform="translate(-2 -2)"><path d="M22.37,11.272l-2.312-.58a7.106,7.106,0,0,0-.371-.885l1.229-2.048a1.007,1.007,0,0,0-.153-1.229L19.607,5.371a1.007,1.007,0,0,0-1.229-.153L16.33,6.447a7,7,0,0,0-.889-.368l-.58-2.315A1.007,1.007,0,0,0,13.886,3H12.248a1.007,1.007,0,0,0-.975.764l-.58,2.312a7.078,7.078,0,0,0-.885.371L7.756,5.218a1.007,1.007,0,0,0-1.229.153L5.371,6.527a1.007,1.007,0,0,0-.153,1.229L6.447,9.8a7.026,7.026,0,0,0-.368.889l-2.315.58A1.007,1.007,0,0,0,3,12.248v1.635a1.007,1.007,0,0,0,.764.975l2.312.58a7.106,7.106,0,0,0,.371.885L5.218,18.378a1.007,1.007,0,0,0,.153,1.229l1.156,1.156a1.007,1.007,0,0,0,1.229.153L9.8,19.686a7,7,0,0,0,.889.368l.58,2.315a1.007,1.007,0,0,0,.975.764h1.635a1.007,1.007,0,0,0,.975-.764l.58-2.312a7.079,7.079,0,0,0,.885-.371l2.048,1.229a1,1,0,0,0,1.229-.153l1.156-1.156a1.007,1.007,0,0,0,.153-1.229L19.68,16.33a7.025,7.025,0,0,0,.368-.889l2.315-.58a1.007,1.007,0,0,0,.771-.975V12.248a1.007,1.007,0,0,0-.764-.975Z" transform="translate(-0.653 -0.653)" fill="#c2cde7"/><path d="M23.91,14.518a7.11,7.11,0,0,0-.371-.885l1.229-2.048a1.007,1.007,0,0,0-.153-1.229l-.233-.233L10.223,24.283c.215.2.437.4.67.58a1,1,0,0,0,.715-.121l2.048-1.229a7,7,0,0,0,.889.368l.257,1.041L24.937,14.775Zm-.219-5.092-.177-.17H21.876l-.243.146L9.428,21.607l-.347.6a1,1,0,0,0-.146.559,9.813,9.813,0,0,0,.614.805Zm-4.4.476L19.036,8.86,8.9,19.01l1.041.257c.038.108.08.219.125.326l9.553-9.567C19.512,9.981,19.4,9.95,19.293,9.9Z" transform="translate(-4.505 -4.479)" fill="#d3dded"/><path d="M23.513,19a4.513,4.513,0,1,0,4.513,4.513A4.513,4.513,0,0,0,23.513,19Z" transform="translate(-11.099 -11.099)" fill="#acb7d0"/><path d="M27.43,25a2.43,2.43,0,1,0,2.43,2.43A2.43,2.43,0,0,0,27.43,25Z" transform="translate(-15.016 -15.016)" fill="#f9dd8f"/><path d="M35.86,25.039h-.694a.347.347,0,1,0,0,.694h.694a.347.347,0,0,0,0-.694Zm-4.513,3.818A.347.347,0,0,0,31,29.2V29.9a.347.347,0,1,0,.694,0V29.2A.347.347,0,0,0,31.347,28.857Zm2.947-1.017a.347.347,0,0,0-.489.489l.489.489a.347.347,0,0,0,.489-.489Zm-.246-4.808a.347.347,0,0,0,.246-.1l.489-.489a.347.347,0,0,0-.489-.489l-.489.489a.347.347,0,0,0,.246.594Zm1.614,3.721-.642-.26a.347.347,0,1,0-.264.628l.642.26a.347.347,0,1,0,.26-.642Zm-2.5,2.013a.347.347,0,1,0-.639.271l.271.639a.347.347,0,1,0,.639-.271Zm1.385-4.738a.347.347,0,0,0,.455.184l.639-.271a.347.347,0,0,0-.271-.639l-.639.271A.347.347,0,0,0,34.544,24.029Z" transform="translate(-18.933 -12.972)" fill="#8d6c9f"/><path d="M22.04,10.557l-2.392-.6a7.352,7.352,0,0,0-.385-.916l1.27-2.121a1.041,1.041,0,0,0-.156-1.274l-1.2-1.194a1.041,1.041,0,0,0-1.27-.156l-2.121,1.27a7.238,7.238,0,0,0-.916-.382l-.6-2.4A1.041,1.041,0,0,0,13.261,2H11.567a1.041,1.041,0,0,0-1.01.788l-.6,2.392a7.324,7.324,0,0,0-.916.385L6.922,4.295a1.041,1.041,0,0,0-1.27.156l-1.2,1.2a1.041,1.041,0,0,0-.156,1.274l1.27,2.121a7.269,7.269,0,0,0-.382.92l-2.4.6A1.041,1.041,0,0,0,2,11.567v1.694a1.041,1.041,0,0,0,.788,1.01l2.392.6a7.352,7.352,0,0,0,.385.916l-1.27,2.117a1.041,1.041,0,0,0,.156,1.274l1.2,1.2a1.041,1.041,0,0,0,1.27.156l2.121-1.27a7.238,7.238,0,0,0,.916.382l.6,2.4a1.041,1.041,0,0,0,1.014.788h1.694a1.041,1.041,0,0,0,1.01-.788l.6-2.392a7.324,7.324,0,0,0,.916-.385l2.121,1.27a1.041,1.041,0,0,0,1.27-.156l1.2-1.2a1.041,1.041,0,0,0,.156-1.274l-1.27-2.121a7.269,7.269,0,0,0,.382-.92l2.4-.6a1.041,1.041,0,0,0,.788-1.007V11.567a1.041,1.041,0,0,0-.788-1.01Zm.094,2.7a.347.347,0,0,1-.264.347l-2.4.6a.694.694,0,0,0-.486.451,6.884,6.884,0,0,1-.347.833.694.694,0,0,0,.021.656l1.27,2.121a.347.347,0,0,1-.052.423l-1.2,1.2a.347.347,0,0,1-.423.052l-2.114-1.277a.694.694,0,0,0-.666-.024,6.943,6.943,0,0,1-.833.347.694.694,0,0,0-.451.486l-.6,2.4a.347.347,0,0,1-.347.264H11.567a.347.347,0,0,1-.347-.264l-.6-2.4a.694.694,0,0,0-.451-.486,6.943,6.943,0,0,1-.833-.347.686.686,0,0,0-.66.024l-2.121,1.27a.347.347,0,0,1-.423-.052l-1.2-1.2a.347.347,0,0,1-.052-.424l1.281-2.114a.694.694,0,0,0,.024-.666,6.911,6.911,0,0,1-.347-.833.694.694,0,0,0-.486-.451l-2.4-.6A.347.347,0,0,1,2.7,13.25V11.567a.347.347,0,0,1,.264-.347l2.4-.6a.694.694,0,0,0,.486-.451,6.884,6.884,0,0,1,.347-.833.694.694,0,0,0-.024-.656L4.9,6.561a.347.347,0,0,1,.052-.423l1.2-1.2a.347.347,0,0,1,.423-.052L8.682,6.166a.694.694,0,0,0,.666.024,6.943,6.943,0,0,1,.833-.347.694.694,0,0,0,.451-.486l.6-2.4a.347.347,0,0,1,.347-.264h1.694a.347.347,0,0,1,.347.264l.6,2.4a.694.694,0,0,0,.451.486,6.943,6.943,0,0,1,.833.347.694.694,0,0,0,.646-.024L18.266,4.9a.347.347,0,0,1,.423.052l1.2,1.2a.347.347,0,0,1,.052.423L18.662,8.682a.694.694,0,0,0-.024.666,6.911,6.911,0,0,1,.347.833.694.694,0,0,0,.486.451l2.4.6a.347.347,0,0,1,.264.347Z" transform="translate(0 0)" fill="#8d6c9f"/><path d="M26.777,24a2.777,2.777,0,1,0,2.777,2.777A2.777,2.777,0,0,0,26.777,24Zm0,4.86a2.083,2.083,0,1,1,2.083-2.083A2.083,2.083,0,0,1,26.777,28.86Z" transform="translate(-14.363 -14.363)" fill="#8d6c9f"/><path d="M20.884,26.622a4.166,4.166,0,0,1,.951-7.727.347.347,0,1,0-.167-.673,4.86,4.86,0,0,0-1.111,9.025.348.348,0,1,0,.326-.614Zm2.506-7.81a4.166,4.166,0,0,1,.736.167.347.347,0,0,0,.215-.66,4.86,4.86,0,0,0-.857-.194.35.35,0,0,0-.09.694Zm-.559,3.433a.694.694,0,1,0,.694.694A.694.694,0,0,0,22.831,22.245Z" transform="translate(-10.417 -10.525)" fill="#8d6c9f"/><path d="M21.728,9l.43.785.785.43-.785.43-.43.785-.43-.785-.785-.43.785-.43ZM16.84,20.455l.3.542.545.3-.545.3-.3.545-.3-.545L16,21.3l.542-.3Zm9.7-7.984.2.371.368.2-.368.2-.2.371-.2-.371-.371-.2.371-.2Z" transform="translate(-9.14 -4.57)" fill="#fff8f8"/></g></svg>