<svg xmlns="http://www.w3.org/2000/svg" width="314.688" height="274.737" viewBox="0 0 314.688 274.737"><g transform="translate(0)"><g transform="translate(0.001)"><path d="M255.812,159.087a1.7,1.7,0,0,0-3.062.4,59.653,59.653,0,0,1-2.2,6.644,14.991,14.991,0,0,0-5.435-5.682c-1.554-.962-2.926.878-2.295,2.295a21.291,21.291,0,0,1-8.256,26.915c-1.827,1.144-.143,4.044,1.69,2.893.247-.15.481-.312.715-.468l1.378.858c-.748,1.372.7,3.394,2.217,2.308,6.293-4.512,12.9-9.485,16.253-16.7C259.713,172.337,259.927,164.8,255.812,159.087Z" transform="translate(-81.797 -55.388)" fill="#cf4327"/><path d="M131.808,387.344c-5.11-5.428-9.83-10.551-16.422-14.244a1.56,1.56,0,0,0-1.372-.117,1.3,1.3,0,0,0-1.151,1.567v.072a1.489,1.489,0,0,0,.072.475,54.232,54.232,0,0,0,4.083,14.764,194.744,194.744,0,0,0-23.684-9.245,1.69,1.69,0,0,0-1.632,2.8,160.46,160.46,0,0,0,12.112,11.644q-5.9.228-11.774.949c-1.5.182-2.477,2.269-.845,3.127,6.644,3.485,14.446,3.355,21.766,3.68,6.313.28,15.713,2.158,20.908-2.555C138.654,395.88,135.358,391.108,131.808,387.344Z" transform="translate(-31.613 -130.464)" fill="#3b301b"/><path d="M214.842,372.422a26.512,26.512,0,0,0,12.424-30.12c-1.671-6.209-11.266-3.628-9.752,2.561-2-1.554-5.994.273-5.441,3.647a20,20,0,0,1-4.941,16.467l-.15.052c-2.347.78-4.583,3.563-3.511,6.189,2.34,5.74,4.9,11.364,7.8,16.864,3,5.74,11.7.65,8.686-5.077C218.138,379.528,216.422,376,214.842,372.422Z" transform="translate(-71.096 -118.521)" fill="#cf4327"/><path d="M311.485,350.783c-2.789-1.125-6.176-2.061-9.141-3.374,1.352-6.371.65-12.911-3.368-18.463a23.5,23.5,0,0,0-19.594-9.719c-6.469.124-6.5,10.181,0,10.064a14.076,14.076,0,0,1,5.006.813,3.2,3.2,0,0,0,.806,3.036,22.559,22.559,0,0,1,5.929,16.116,3.1,3.1,0,0,0,.65,2.054,6,6,0,0,0,2.822,3.433c4.258,2.477,9.635,3.9,14.2,5.76,2.535,1.027,5.5-1.118,6.189-3.511C315.789,354.112,313.988,351.8,311.485,350.783Z" transform="translate(-96.051 -111.691)" fill="#cf4327"/><path d="M267.3,190.736c5.266-10.064,8.4-22.754,3.374-33.5a1.7,1.7,0,0,0-2.633-.338,221.431,221.431,0,0,1-26.453,19.5c-7.873,4.973-16.318,8.952-22.994,15.6-13.425,13.334-19.406,32.135-19.744,50.748-.156,8.712.273,18.249,3.608,26.421a23.053,23.053,0,0,0,16.324,14.367c7.873,2.054,17.046,1.612,24.34-2.243,6.638-3.511,10.863-10.6,13.5-17.378,7.015-18.015,1.547-37.583-11.4-51.359C255.028,208.881,262.589,199.708,267.3,190.736Z" transform="translate(-69.564 -54.732)" fill="#cf4327"/><path d="M229.617,191.839l-28.937-.3A1.7,1.7,0,0,0,199.5,194.4a131.206,131.206,0,0,1,9.661,11.149,186.473,186.473,0,0,0-30.308,6.9,1.69,1.69,0,0,0,0,3.251q10.044,3.842,20.088,7.665c1.7.65,2.6-1.547,1.619-2.711l27.3-25.465h1.775C231.776,195.226,231.782,191.872,229.617,191.839Z" transform="translate(-62.149 -67.017)" fill="#cf4327"/><path d="M138.654,292.315c.449-2.366,1.3-7.392-2.106-6.7-1.008.2-1.794,1.411-2.477,2.022a23.743,23.743,0,0,1-4.551,3.251,20.2,20.2,0,0,1-11.312,2.405c-16.623-1.443-22.1-19.932-25.062-33.52-2.88-13.21-6.17-28.143-18.639-35.678-12.781-7.723-30.451-8.224-44.208-3C15.347,226.777,3.749,239.773.55,255.551c-.364,1.8,2.067,3,3.062,1.3,2.639-4.551,8.2-5.649,13-4.518,5.773,1.352,9.914,6.111,13.041,10.863,6.5,9.882,11.585,20.492,19,29.821,7.119,8.848,15.882,16.526,26.479,20.986a46.094,46.094,0,0,0,33.975.65c10.7-3.784,24.152-9.947,29.1-20.96a1.547,1.547,0,0,0,.312-.715A1.593,1.593,0,0,0,138.654,292.315Z" transform="translate(-0.18 -76.152)" fill="#cf4327"/><path d="M304.357,156.588c-1.9-2.106-4.934-.085-6.722,1.2s-3.842,3.849-1.742,5.851c1.716,1.664,4.271.078,5.968-.761a5.677,5.677,0,0,0,3-2.6,3.491,3.491,0,0,0-.507-3.686Z" transform="translate(-103.219 -54.468)" fill="#3b301b"/><path d="M275.4,197.408c-.429-2.841-3.29-4.85-5.851-5.571-7.034-1.95-14.452,3.251-17.111,9.589-2.028,4.837-.995,14.3,6.027,14.179a6.2,6.2,0,0,0,5.513-4.284c1.456-3.985.982-7.7,6.2-8.66C272.913,202.2,275.884,200.665,275.4,197.408Z" transform="translate(-88.002 -66.976)" fill="#eae2c2"/><path d="M269.952,200.951c-.091-2.548-2.6-4.05-4.973-4.011a4.46,4.46,0,0,0-4.291,4.6,4.551,4.551,0,0,0,3.771,4.648,1.723,1.723,0,0,0,.52.071,1.645,1.645,0,0,0,.585-.058,5.376,5.376,0,0,0,4.388-5.246Z" transform="translate(-91.211 -68.906)" fill="#3b301b"/><path d="M243.016,253.172c-7.9,2.152-15.1,8.451-15.739,17.026-.65,8.4,6.118,17.833,15.219,13.919,8.549-3.673,15.447-11.624,15.9-21.142S250.85,251.365,243.016,253.172Z" transform="translate(-79.506 -88.375)" fill="#eae2c2"/><path d="M288.719,185.1a5.578,5.578,0,0,0,8.243-.306c2.334-2.887,1.021-6.287-1.3-8.7-1.489-1.567-3.862.806-2.373,2.373.988,1.04,2.106,2.47,1.248,3.9a2.178,2.178,0,0,1-3.472.332c-1.56-1.5-3.9.871-2.373,2.373Z" transform="translate(-100.836 -61.433)" fill="#3b301b"/><path d="M140.814,186.868h0l2.516-2.009a1.684,1.684,0,0,0,0-2.373,1.729,1.729,0,0,0-2.373,0l-1.664,1.3v-2.828a1.678,1.678,0,0,0-3.355,0v1.879q-.709-.975-1.5-1.892a1.69,1.69,0,0,0-2.373,0,1.71,1.71,0,0,0,0,2.373,22.436,22.436,0,0,1,1.482,1.95,9.94,9.94,0,0,1-1.19-.4,1.69,1.69,0,0,0-2.061,1.17,1.716,1.716,0,0,0,1.17,2.061,10.746,10.746,0,0,0,2.926.689,35.815,35.815,0,0,0,6.092,14.634c2.49,3.478,8.308.137,5.792-3.387a29.905,29.905,0,0,1-5.467-13.171Z" transform="translate(-45.573 -62.749)" fill="#cf4327"/><path d="M335.012,171.1a1.71,1.71,0,0,0-2.061-1.17c-.169.039-.332.1-.494.156l.845-1.4a1.677,1.677,0,1,0-2.893-1.69l-.475.787-.059-1.261a1.71,1.71,0,0,0-1.677-1.677,1.69,1.69,0,0,0-1.677,1.677l.143,3.056-1.053-1.547a1.716,1.716,0,0,0-2.295-.6,1.69,1.69,0,0,0-.6,2.295l1.833,2.691a1.95,1.95,0,0,0,.65.592,35.152,35.152,0,0,1-4,13c-2.035,3.8,3.758,7.2,5.792,3.387a43.225,43.225,0,0,0,4.8-15.239,2.125,2.125,0,0,0,.78-.4c-.319.26.13-.085.2-.13s.267-.156.41-.228l.078-.039h.072c.169-.052.338-.1.514-.15a1.69,1.69,0,0,0,1.17-2.1Z" transform="translate(-112.231 -57.675)" fill="#cf4327"/><path d="M267.15,273.45c-3.816-6.1-7.925-12.021-12.216-17.8-1.9-2.568-3.9-5.051-5.805-7.632-1.19-1.625-2.347-4.232-4.323-5.051s-2.971.364-3.706,1.95c-1.612,3.53-3.179,7.086-4.85,10.6-.65,1.411-1.346,2.828-2.048,4.226-.436.878-.878,1.749-1.339,2.6-.15.28-.351.559-.507.852-4.967-2.691-9.979-5.3-14.953-8-2.6-1.417-5.2-2.86-7.8-4.356-2.048-1.19-4.089-2.672-6.417-3.251-7.886-1.95-8.725,9.2-9.6,14.3a232.232,232.232,0,0,0-3.309,36.92q-.046,4.642.1,9.284c.065,2.08-.267,4.817.995,6.638,1,1.45,2.854,1.872,4.44,2.334,2.835.826,5.7,1.554,8.575,2.2a153.349,153.349,0,0,0,40.665,3.524,1.729,1.729,0,0,0,1.677-1.677c.215-2.1-.5-10.629,1.892-10.662,3.134-.039,5.649,5.624,8.725,4.083,2.21-1.105,4.161-4.193,5.74-5.994,2.438-2.782,4.843-5.6,7.151-8.451,2.178-2.7,4.07-5.669,4.317-9.238C275.01,284.5,270.31,278.475,267.15,273.45ZM232,263.906C231.8,264.127,231.647,264.043,232,263.906Z" transform="translate(-66.571 -84.917)" fill="#3b301b"/><path d="M276.281,247.713q1.866-.969,3.686-2.028a85.314,85.314,0,0,0,23.989-21.077,88.119,88.119,0,0,0,8.685-13.477q1.866-3.569,3.394-7.294c1.008-2.444,1.3-4.869,2.054-7.379a.579.579,0,0,0-.436-.884,129.321,129.321,0,0,0-15.752-5.116,3.322,3.322,0,0,0-1.6-.1c-1.768.475-2.353,4.9-2.965,6.41a57.988,57.988,0,0,1-3.16,6.391,63.925,63.925,0,0,1-7.151,10.506,63.128,63.128,0,0,1-20.966,16.669c-4.824,2.5-6.254,9.245-3.608,13.763A10.333,10.333,0,0,0,276.281,247.713Z" transform="translate(-91.37 -66.585)" fill="#3b301b"/><path d="M161.708,224.405a59.907,59.907,0,0,1-9.1-11.611c-1.3-2.074-2.457-4.226-3.634-6.371-.78-1.424-1.534-3.855-3.433-4.037-1.346-.13-3.6,1.378-4.8,1.95a58.69,58.69,0,0,0-10.6,6.378c-1.625,1.229.735,4.161,1.469,5.558,9.511,18.054,24.444,33.481,44.6,38.929,5.09,1.378,11.052-2.9,11.774-8,.832-5.734-2.548-10.3-8-11.774a21.284,21.284,0,0,1-4.551-1.632,50.057,50.057,0,0,1-5.2-2.678,26.831,26.831,0,0,1-3.615-2.5A59.812,59.812,0,0,1,161.708,224.405Z" transform="translate(-45.338 -70.809)" fill="#3b301b"/><path d="M332.787,373.659a20.7,20.7,0,0,0,3.55-6.4,3.381,3.381,0,0,0-2.34-4.128,3.433,3.433,0,0,0-4.128,2.34c-.039.111-.494,1.261-.26.741-.156.351-.332.7-.52,1.04s-.384.65-.592.995c-.065.1-.787,1.079-.449.65-1.092,1.372-1.437,3.426,0,4.746,1.216,1.118,3.576,1.463,4.746,0Z" transform="translate(-114.446 -127.019)" fill="#cf4327"/><path d="M223.279,412.862a20.368,20.368,0,0,0,5.968-3.517,3.375,3.375,0,0,0,0-4.746,3.439,3.439,0,0,0-4.746,0l-.475.39q.4-.319-.065,0c-.306.189-.6.4-.91.579s-.65.358-.949.514l-.559.26q.494-.2-.052,0a3.441,3.441,0,0,0-2.34,4.128c.514,1.593,2.373,3.017,4.128,2.34Z" transform="translate(-76.627 -141.232)" fill="#cf4327"/><path d="M66.734,220.326c-1.092-1.118-3.426-1.3-4.869-1.612a55.643,55.643,0,0,0-28.137.65C16.988,224.227,3.537,238.048.046,255.257c-.442,2.165,2.477,3.608,3.68,1.554,4.109-7.041,14.016-5.344,19.36-.858,6.677,5.6,10.3,14.432,14.7,21.779a2.074,2.074,0,0,0,2.275.923,15.447,15.447,0,0,0,10.863-21.922c4.947.956,10.025.117,12.281-5.24,2.769-6.566-1.1-12.209-6.2-15.967a25.644,25.644,0,0,0,4.161-1.482A3.784,3.784,0,0,0,62,233.6c2.861-1.794,5.246-4.434,5.727-7.886C67.943,224.162,67.943,221.581,66.734,220.326Z" transform="translate(-0.001 -76.001)" fill="#eae2c2"/><path d="M329.084,20.615l-20.94-.351-10.473-.176c-2.132-.033-4.193-.384-5.91,1.092-2.067,1.781-3.7,4.6-5.344,6.781q-2.984,3.953-5.78,8.042-5.565,8.133-10.363,16.747a1.7,1.7,0,0,0,1.45,2.522q10.74.917,21.519,1.066a1.645,1.645,0,0,0,.767-.169c3.6.091,7.242-.052,10.493-1.788,3.94-2.1,6.592-6.241,9.362-9.589L323.779,32.8c2.36-2.847,6.976-6.56,7-10.519A1.7,1.7,0,0,0,329.084,20.615Z" transform="translate(-94.491 -7.008)" fill="#3b301b"/><path d="M331.949,50.461a2.757,2.757,0,0,1-.845,1.151A58.643,58.643,0,0,1,315.4,62.072c-3.413,1.593-6.761,4.011-10.623,4.4-3.251.325-5.025-1.95-6.144-4.778s-1.593-6.1-2.275-8.152a5.772,5.772,0,0,1-.338-1.417h0a2.208,2.208,0,0,1,0-.65,3.576,3.576,0,0,1,.995-1.684c2.217-2.425,5.2-3.966,8.12-5.448q7.262-3.673,14.576-7.216c1.482-.709,3.251-1.417,4.7-.559a4.551,4.551,0,0,1,1.144,1.066c1.437,1.749,2.8,4.8,3.725,6.313.247.4.65,1.04,1.04,1.768C331.26,47.353,332.248,49.447,331.949,50.461Z" transform="translate(-103.564 -12.657)" fill="#3b301b"/><path d="M329.616,48.778c-1.7,3.127-6.163,5.513-9.1,7.32-3.251,2.009-6.729,3.582-10.109,5.363-3.589,1.892-8.139,4.317-10.649-.234-1.6-2.913-2.431-7.119-3-10.4l-.774,1.892h0a1.677,1.677,0,0,0,.832-1.45c.1-2.8,6.209-5.24,8.3-6.306,3.53-1.8,7.08-3.556,10.642-5.3,1.3-.65,4-2.6,5.422-2.5,2.366.124,3.407,2.412,4.356,4.161,1.242,2.295,4.07,5.617,3.849,8.282-.176,2.152,3.179,2.139,3.355,0,.306-3.732-3.212-8.165-5.032-11.286-2.132-3.654-4.512-5.636-8.783-3.9-5.6,2.334-11.091,5.357-16.467,8.165-3.348,1.742-8.835,4.343-8.985,8.7l.832-1.45h0a1.716,1.716,0,0,0-.774,1.892c.715,4.1,1.755,9.674,4.492,13,2.6,3.134,6.3,2.984,9.875,1.638a88.111,88.111,0,0,0,13.353-6.781c3.686-2.184,9.167-5.259,11.266-9.1C333.549,48.577,330.656,46.88,329.616,48.778Z" transform="translate(-102.682 -11.819)" fill="#3b301b"/><path d="M332.136,46.1c-2.659-4.551-4.356-8.985-10.337-9.1-5.032-.078-10.486,2.106-14.868,4.4-4.635,2.431-10.441,6.586-12.677,11.52-.65,1.5-.2,3.062.228,4.551.306,1.073.65,2.126,1.008,3.192.156.507.65,2.47.728,2.113a2.028,2.028,0,0,0,3.361,1.95c4.226-4.135,9.752-7.041,15.018-9.654s10.629-4.993,16.337-6.046a1.645,1.645,0,0,0,1.45-1.619A1.885,1.885,0,0,0,332.136,46.1Z" transform="translate(-102.842 -12.945)" fill="#eae2c2"/><path d="M302.92,64.645c-2.665,2.3-5.2,6.716-1.157,9.258,4.174,2.6,10.3-.358,14.27-2a53.9,53.9,0,0,0,12.417-6.781c2.6-2.035,7.288-6.014,7.08-9.752C334.938,44.634,306.177,62.038,302.92,64.645Z" transform="translate(-104.844 -18.162)" fill="#3b301b"/><path d="M372.006,6.339a27.75,27.75,0,0,1,.182-4.661A1.684,1.684,0,0,0,370.511,0a1.716,1.716,0,0,0-1.677,1.677,27.775,27.775,0,0,0-.208,3.212l-2.236-.234a1.69,1.69,0,0,0-1.677,1.677,1.716,1.716,0,0,0,1.677,1.677l2.945.312c4.785,5.851,2.6,15.486-5.155,17.553-6.079,1.651-9.18-7.1-15.6-4-1.95.936-.247,3.829,1.69,2.893,2.867-1.385,5.454,2.262,7.665,3.511a9.1,9.1,0,0,0,4.2,1.2,12.513,12.513,0,0,0,8.861-4C376.427,20.088,376.615,12.255,372.006,6.339Z" transform="translate(-121.661)" fill="#3b301b"/><path d="M335.967,85.024c-2.054-.65-2.938,2.6-.891,3.251,4.382,1.424,7.034,7.08,6.774,11.455a9.751,9.751,0,0,1-.572,2.789c-1.833-2.756-5.123-4.687-8.5-4.011a6.5,6.5,0,0,0-5.123,6.878c.377,3.413,3.9,5.3,7.073,5.311a9.862,9.862,0,0,0,5.09-1.417,19.9,19.9,0,0,1-.15,2.672,27.5,27.5,0,0,1-5.721,14.257c-1.372,1.645.988,4.031,2.373,2.373,4.395-5.279,8.3-14.712,6.605-22.1a10.611,10.611,0,0,0,.93-1.463C347.494,98.046,343.515,87.475,335.967,85.024Zm1.06,21.9c-2.178.793-7.8.039-5.63-3.68,1.95-3.3,6.261-.65,7.522,1.853.091.182.163.371.241.566a6.657,6.657,0,0,1-2.132,1.255Z" transform="translate(-114.636 -29.719)" fill="#e5a024"/><path d="M418.552,390.926a122.761,122.761,0,0,0-15.778,1.157,177.346,177.346,0,0,0,16.168-14.953,1.69,1.69,0,0,0-1.632-2.8,126.772,126.772,0,0,0-31.3,12.684,158.331,158.331,0,0,0,11.949-24.262c.54-1.385-1.3-2.6-2.464-1.892a114.563,114.563,0,0,0-35.405,34.879c-1.84-.6-3.342,2.093-1.463,2.978,4.72,2.236,9.784,1.645,14.862,1.411,5.76-.273,11.527-.559,17.28-.943s11.5-.858,17.234-1.515c4.265-.488,8.328-1.034,11.748-3.829C420.9,392.843,419.911,390.919,418.552,390.926Z" transform="translate(-125.176 -126.187)" fill="#3b301b"/><path d="M391.759,368.876a84.787,84.787,0,0,0-26.583,10.4,168.975,168.975,0,0,0,13.977-30.62,1.7,1.7,0,0,0-2.464-1.892,97.711,97.711,0,0,0-23.742,23.846,37.279,37.279,0,0,0,.533-7.606c-.1-1.84-.384-3.68-.6-5.506-.124-1.079-.65-3.283-.371-4.083.65-1.95-2-2.672-3.062-1.3-4.336,5.61-8.549,11.325-11.156,17.976-2.8,7.151-4,14.771-4.6,22.37a1.719,1.719,0,0,0,1.229,2.828q9.882.2,19.77.072c5.474-.078,11.11-.143,16.253-2.184,9.752-3.849,17.059-13.392,22.689-21.824C394.522,370.039,393.092,368.6,391.759,368.876Z" transform="translate(-116.619 -121.241)" fill="#e5a024"/><path d="M182.175,377.794a73.243,73.243,0,0,0-15.6,7.9,131.109,131.109,0,0,0,2.028-27.857,1.692,1.692,0,0,0-2.86-1.183,81.127,81.127,0,0,0-17.124,27.955,52.445,52.445,0,0,0-11.052-11.253c-1.125-.852-2.412.345-2.522,1.45a39.077,39.077,0,0,0,.507,11.24,49.057,49.057,0,0,0-14.107-7.645,1.69,1.69,0,0,0-2.061,2.061,60.784,60.784,0,0,0,8.38,17.111,1.762,1.762,0,0,0,2.477.4h.059a194.813,194.813,0,0,0,35.542,0c3.9-.364,8.659-.215,11.286-3.576,3.075-3.933,4.8-9.609,6.917-14.114C184.652,379.068,183.7,377.248,182.175,377.794Z" transform="translate(-41.751 -124.614)" fill="#e5a024"/><path d="M294.128,366.995a129.548,129.548,0,0,0-18.9,24.763l-1.645-9.212c-.65-3.79-.988-7.8-3.108-11.117a1.7,1.7,0,0,0-2.893,0,72.164,72.164,0,0,0-8.328,20.466,55.584,55.584,0,0,0-12.281-12.248c-1.671-1.216-3.108,1.3-2.035,2.633-.507-.65.059.9.13,1.391.156,1.086.234,2.191.332,3.283.143,1.677.208,3.387.488,5.051.514,3.062,1.3,8.172,4.245,9.914,3.42,2.041,8.933.507,12.71.488q11.422-.052,22.8-1.034c2.087-.228,4.063-.65,5.337-2.444,1.671-2.392,2.171-5.994,2.861-8.77A114.623,114.623,0,0,0,297,368.184a1.7,1.7,0,0,0-2.873-1.19Z" transform="translate(-85.572 -128.241)" fill="#e5a024"/><path d="M441.479,145.037c-6.657-3.335-13.093-.514-18.483,3.673a7.6,7.6,0,0,0-.514-2.47c-1.3-3.329-4.551-4.492-7.886-3.771-6.644,1.45-12.456,6.092-16.149,11.787-6.566-7.84-23.352,5.142-16.253,11.325.046.039.1.065.143.1a2.218,2.218,0,0,0,.267.215c3,1.95,7.028,2.009,10.493,2.048,4.336.046,8.653-.072,13,0,6.605.15,13.217.189,19.822-.039,5.045-.176,11.553.286,16.123-2.295C449.963,161.128,449.684,149.146,441.479,145.037Z" transform="translate(-133.125 -49.776)" fill="#eae2c2"/><path d="M182.279,86.225A21.727,21.727,0,0,0,171.7,88.643c1-2.561,1.71-5.2.962-8.009-1.183-4.479-5.246-5.988-9.511-5.2a23.232,23.232,0,0,0-16.337,13.041,11.7,11.7,0,0,0-5.74-4.369,1.951,1.951,0,0,0-.6-.208,2.054,2.054,0,0,0-.65-.085c-4.382-.494-8.38,1.56-11.247,4.908-2.321,2.711-4.375,6.761-2.834,10.33,1.3,3,4.622,4.336,7.645,4.837,5.2.865,10.844.156,16.116.169,9.921,0,19.939.494,29.853.156,5.89-.2,14.5-2.256,13.652-9.934C192.415,88.949,187.11,86.4,182.279,86.225Z" transform="translate(-43.806 -26.323)" fill="#eae2c2"/><path d="M79.676,308.973l.787,4.733a2.028,2.028,0,0,0,2.477,1.4,2.061,2.061,0,0,0,1.4-2.451l-.787-4.733a2.028,2.028,0,0,0-2.477-1.4,2.061,2.061,0,0,0-1.4,2.477Z" transform="translate(-27.856 -107.224)" fill="#eae2c2"/><path d="M89.723,297.818a27.537,27.537,0,0,1,5.5-.267c2.6.117,2.6-3.9,0-4.024a32.749,32.749,0,0,0-6.573.41,2.028,2.028,0,0,0-1.4,2.477,2.061,2.061,0,0,0,2.477,1.4Z" transform="translate(-30.504 -102.693)" fill="#eae2c2"/><path d="M105.224,271.808a17.689,17.689,0,0,0,.384,5.2,2.023,2.023,0,0,0,3.9-1.073,13.984,13.984,0,0,1-.241-4.161,2.028,2.028,0,0,0-2.015-2.015,2.054,2.054,0,0,0-2.015,2.015Z" transform="translate(-36.8 -94.386)" fill="#eae2c2"/><path d="M110.357,253.067a4.512,4.512,0,0,1,3.485-.163c2.47.8,3.524-3.082,1.073-3.9a8.653,8.653,0,0,0-6.586.566c-2.321,1.144-.286,4.622,2.028,3.472Z" transform="translate(-37.545 -86.982)" fill="#eae2c2"/><path d="M113.312,297.4l3-3.043a2.015,2.015,0,0,0-2.847-2.848l-3,3.043a2.015,2.015,0,0,0,2.848,2.848Z" transform="translate(-38.465 -101.812)" fill="#eae2c2"/><path d="M98.76,311.567a6.254,6.254,0,0,1-.423,3.153,2.08,2.08,0,0,0,.722,2.737,2.02,2.02,0,0,0,2.75-.722,11.357,11.357,0,0,0,.832-6.254,2.025,2.025,0,0,0-2.477-1.4,2.062,2.062,0,0,0-1.4,2.477Z" transform="translate(-34.322 -108.121)" fill="#eae2c2"/><path d="M94.354,336.6a45.334,45.334,0,0,0,5.851.65c2.6.11,2.6-3.9,0-4.024a37,37,0,0,1-4.811-.514,2.067,2.067,0,0,0-2.431,1.411,2.028,2.028,0,0,0,1.4,2.477Z" transform="translate(-32.502 -116.394)" fill="#eae2c2"/><path d="M118.656,311.284a7.249,7.249,0,0,0-.1,4.772,2.013,2.013,0,1,0,3.881-1.073,3.53,3.53,0,0,1,.1-2.6,2.028,2.028,0,0,0-1.4-2.477,2.061,2.061,0,0,0-2.477,1.4Z" transform="translate(-41.357 -108.41)" fill="#eae2c2"/><path d="M120.112,274.664l2.7-.962a2.023,2.023,0,0,0-1.073-3.9l-2.7.962a2.023,2.023,0,0,0,1.073,3.9Z" transform="translate(-41.131 -94.374)" fill="#eae2c2"/><path d="M134.181,322.783a10.987,10.987,0,0,1,1.892,3.108,2.074,2.074,0,0,0,2.477,1.4,2.025,2.025,0,0,0,1.4-2.477,16.668,16.668,0,0,0-2.926-4.882,2.028,2.028,0,0,0-2.847,0A2.054,2.054,0,0,0,134.181,322.783Z" transform="translate(-46.748 -111.737)" fill="#eae2c2"/><path d="M123.275,336.817l-2.392,5.006a2.067,2.067,0,0,0,.722,2.75,2.028,2.028,0,0,0,2.75-.722l2.392-5.006a2.067,2.067,0,0,0-.722-2.75,2.028,2.028,0,0,0-2.75.722Z" transform="translate(-42.206 -117.502)" fill="#eae2c2"/><path d="M121.7,359.081a15.6,15.6,0,0,0,5.2-.735c2.457-.787,1.4-4.674-1.073-3.9a12.1,12.1,0,0,1-4.161.592c-2.6-.078-2.6,3.946,0,4.024Z" transform="translate(-41.889 -123.98)" fill="#eae2c2"/><path d="M143.371,341.5l.982,3.693a2.023,2.023,0,1,0,3.9-1.073l-.982-3.693a2.023,2.023,0,0,0-3.9,1.073Z" transform="translate(-50.138 -118.592)" fill="#eae2c2"/><path d="M154.73,356.015a12.2,12.2,0,0,0,4.226-.741,2.067,2.067,0,0,0,1.4-2.477,2.028,2.028,0,0,0-2.477-1.4,8.881,8.881,0,0,1-3.153.6C152.13,351.991,152.13,356.021,154.73,356.015Z" transform="translate(-53.456 -122.923)" fill="#eae2c2"/><path d="M169.207,341.924h3.355a2.015,2.015,0,0,0,0-4.024h-3.355a2.015,2.015,0,0,0,0,4.024Z" transform="translate(-58.539 -118.227)" fill="#eae2c2"/><path d="M180.731,345.04l-.65,2.685a2.023,2.023,0,0,0,3.9,1.073l.65-2.685a2.023,2.023,0,0,0-3.9-1.073Z" transform="translate(-62.983 -120.205)" fill="#eae2c2"/><path d="M105.4,349.523l1.008-1.339a2.022,2.022,0,0,0,.2-1.547,2.055,2.055,0,0,0-.923-1.2,2.028,2.028,0,0,0-1.547-.2,2.353,2.353,0,0,0-1.2.923l-1.008,1.339a2.022,2.022,0,0,0-.2,1.547,2.054,2.054,0,0,0,.923,1.2,2.028,2.028,0,0,0,1.547.2,2.353,2.353,0,0,0,1.2-.923Z" transform="translate(-35.57 -120.767)" fill="#eae2c2"/><path d="M77.452,327.919l1.339,1.677a2.016,2.016,0,0,0,1.424.592,2.048,2.048,0,0,0,1.424-.592,2.022,2.022,0,0,0,.592-1.424,2.327,2.327,0,0,0-.592-1.424L80.3,325.072a2.015,2.015,0,0,0-1.424-.592,2.048,2.048,0,0,0-1.424.592,2.022,2.022,0,0,0-.592,1.424A2.328,2.328,0,0,0,77.452,327.919Z" transform="translate(-26.893 -113.531)" fill="#eae2c2"/><path d="M111.21,236.194l1.008,1.339a2.2,2.2,0,0,0,1.2.923,2.055,2.055,0,0,0,1.547-.2,2.028,2.028,0,0,0,.923-1.2,1.95,1.95,0,0,0-.2-1.547l-1.008-1.339a2.2,2.2,0,0,0-1.2-.923,2.054,2.054,0,0,0-1.547.2,2.028,2.028,0,0,0-.923,1.2,1.95,1.95,0,0,0,.2,1.547Z" transform="translate(-38.814 -81.584)" fill="#eae2c2"/><path d="M326.648,18.86a172.552,172.552,0,0,0-35.366-1.014,2.145,2.145,0,0,0-1.593.839,2.223,2.223,0,0,0-2.048.923,239.84,239.84,0,0,0-18.977,30.3c-1.3,2.477,2.457,4.687,3.764,2.2a239.9,239.9,0,0,1,18.7-29.905h.176a172.551,172.551,0,0,1,35.347,1.021C329.418,23.586,329.385,19.224,326.648,18.86Z" transform="translate(-93.908 -6.079)" fill="#574730"/><path d="M312.668,74.3a37.856,37.856,0,0,0,20.713-10.72c1.983-1.989-1.1-5.071-3.082-3.082a33.962,33.962,0,0,1-18.788,9.6c-2.763.455-1.593,4.655,1.157,4.206Z" transform="translate(-108.442 -20.941)" fill="#574730"/><path d="M287.205,235.23a63.711,63.711,0,0,0,23.4-25.114c1.3-2.49-2.477-4.694-3.764-2.2a59.407,59.407,0,0,1-21.85,23.547c-2.386,1.463-.2,5.233,2.2,3.764Z" transform="translate(-99.356 -72.364)" fill="#574730"/><path d="M154.285,218.075a41.425,41.425,0,0,0,19,21.883c2.464,1.339,4.668-2.425,2.2-3.764a36.842,36.842,0,0,1-16.994-19.276c-.988-2.6-5.2-1.469-4.206,1.157Z" transform="translate(-53.928 -75.381)" fill="#574730"/><path d="M201.479,320.973a146.829,146.829,0,0,1,1.95-35.639c.494-2.743-3.706-3.9-4.206-1.157a151.579,151.579,0,0,0-2.113,36.8c.182,2.782,4.551,2.808,4.362,0Z" transform="translate(-68.856 -98.881)" fill="#574730"/><path d="M265.167,270.367a72.6,72.6,0,0,1,4.447-10.571c1.3-2.49-2.477-4.694-3.764-2.2a79.961,79.961,0,0,0-4.915,11.579c-.884,2.672,3.322,3.816,4.206,1.157Z" transform="translate(-91.256 -89.746)" fill="#574730"/><path d="M344.65,397.587a53.355,53.355,0,0,1,6.664-23.118c1.359-2.457-2.405-4.655-3.764-2.2a58.412,58.412,0,0,0-7.262,25.315C340.138,400.389,344.494,400.383,344.65,397.587Z" transform="translate(-119.061 -129.877)" fill="#f3bc63"/><path d="M360.686,396.2a72.1,72.1,0,0,1,13.405-25.413c1.768-2.152-1.3-5.253-3.082-3.082a77.488,77.488,0,0,0-14.523,27.337c-.793,2.7,3.413,3.849,4.206,1.157Z" transform="translate(-124.696 -128.396)" fill="#f3bc63"/><path d="M379.021,404.823a65.343,65.343,0,0,1,13.444-10.772c2.4-1.45.208-5.2-2.2-3.764a69.815,69.815,0,0,0-14.3,11.455c-1.95,2.028,1.138,5.11,3.082,3.082Z" transform="translate(-131.328 -136.444)" fill="#f3bc63"/><path d="M170.813,399.459a51.2,51.2,0,0,1,7.652-19.984c1.528-2.36-2.243-4.551-3.764-2.2a54.22,54.22,0,0,0-8.087,21.025c-.436,2.744,3.764,3.9,4.206,1.157Z" transform="translate(-58.285 -131.651)" fill="#f3bc63"/><path d="M190.432,409.932a36.953,36.953,0,0,1,5.441-5.292,2.189,2.189,0,0,0,0-3.082,2.236,2.236,0,0,0-3.082,0,36.953,36.953,0,0,0-5.441,5.292,2.243,2.243,0,0,0,0,3.082,2.2,2.2,0,0,0,3.082,0Z" transform="translate(-65.337 -140.285)" fill="#f3bc63"/><path d="M144.825,394.828a28.4,28.4,0,0,0,1.879,7.73,2.249,2.249,0,0,0,2.678,1.521A2.2,2.2,0,0,0,150.9,401.4a24.5,24.5,0,0,1-1.723-6.573A2.243,2.243,0,0,0,147,392.65a2.191,2.191,0,0,0-2.178,2.178Z" transform="translate(-50.669 -137.383)" fill="#f3bc63"/><path d="M127.237,402.106l2.685,4.473c1.443,2.405,5.2.215,3.764-2.2L131,399.909C129.558,397.5,125.8,399.694,127.237,402.106Z" transform="translate(-44.406 -139.558)" fill="#f3bc63"/><path d="M195.53,223.407l13.8-2.431c2.757-.488,1.586-4.687-1.157-4.206l-13.8,2.431C191.617,219.688,192.787,223.888,195.53,223.407Z" transform="translate(-67.458 -75.831)" fill="#db6653"/><path d="M222.376,199.952a82.856,82.856,0,0,1,9.706.65c2.776.351,2.75-4.011,0-4.362a82.869,82.869,0,0,0-9.706-.65c-2.809,0-2.809,4.336,0,4.362Z" transform="translate(-77.07 -68.434)" fill="#db6653"/><path d="M277.245,181.8l8.042-6.053c2.217-1.664.046-5.448-2.2-3.764l-8.048,6.04c-2.217,1.664-.046,5.448,2.2,3.764Z" transform="translate(-95.909 -60.027)" fill="#db6653"/><path d="M122.608,256.961c6.976,5.773,5.851,16.9,7.587,25,1.781,8.451,5.552,16.389,12.892,21.3,2.34,1.567,4.551-2.21,2.2-3.764-8.451-5.662-10.779-16.116-12.008-25.588-.93-7.151-1.619-15.1-7.58-20.043-2.145-1.775-5.246,1.3-3.082,3.082Z" transform="translate(-42.645 -88.64)" fill="#db6653"/></g></g></svg>