<svg xmlns="http://www.w3.org/2000/svg" viewBox="0 0 49 20"><defs><style>.cls-1{fill:#fff;}.cls-2{fill:#10103b;}</style></defs><title>toggle-dark</title><g id="Layer_2" data-name="Layer 2"><g id="Layer_1-2" data-name="Layer 1"><rect class="cls-1" width="49" height="20" rx="10" ry="10"/><polygon class="cls-2" points="26.66 18.61 26.36 18.57 26.17 18.81 26.11 18.5 25.84 18.38 26.09 18.23 26.12 17.91 26.34 18.12 26.63 18.05 26.5 18.34 26.66 18.61"/><polygon class="cls-2" points="25.34 12.3 25.05 12.26 24.85 12.5 24.8 12.19 24.52 12.07 24.78 11.91 24.81 11.6 25.02 11.81 25.31 11.74 25.19 12.03 25.34 12.3"/><polygon class="cls-2" points="28.1 2.18 27.98 2.16 27.89 2.26 27.86 2.13 27.75 2.08 27.86 2.01 27.87 1.87 27.96 1.96 28.09 1.93 28.04 2.06 28.1 2.18"/><polygon class="cls-2" points="15.45 6.58 14.33 6.45 13.6 7.35 13.38 6.18 12.34 5.71 13.32 5.12 13.42 3.93 14.24 4.74 15.34 4.47 14.87 5.56 15.45 6.58"/><polygon class="cls-2" points="19.01 11.22 18.31 11.14 17.84 11.71 17.7 10.96 17.04 10.67 17.66 10.29 17.72 9.54 18.25 10.05 18.94 9.88 18.65 10.57 19.01 11.22"/><polygon class="cls-2" points="14.84 10.98 13.95 10.87 13.37 11.59 13.19 10.66 12.38 10.29 13.15 9.82 13.22 8.88 13.88 9.52 14.75 9.3 14.38 10.17 14.84 10.98"/><path class="cls-2" d="M14.84,13.29a.27.27,0,0,0,0-.31.24.24,0,0,0-.28-.09,3.56,3.56,0,0,1-1.45.15A3.86,3.86,0,0,1,9.81,8.76a4.2,4.2,0,0,1,.43-1.49.29.29,0,0,0,0-.31.24.24,0,0,0-.28-.09A4.4,4.4,0,0,0,7,10.68a4.41,4.41,0,0,0,3.74,4.9A4.12,4.12,0,0,0,14.84,13.29Z"/><polygon class="cls-2" points="24.67 3.3 24.46 3.27 24.32 3.45 24.27 3.22 24.08 3.14 24.27 3.02 24.28 2.8 24.44 2.95 24.65 2.9 24.56 3.11 24.67 3.3"/><polygon class="cls-2" points="24.03 8.09 23.73 8.05 23.54 8.29 23.48 7.98 23.21 7.86 23.47 7.7 23.49 7.39 23.71 7.6 24 7.53 23.88 7.82 24.03 8.09"/><polygon class="cls-2" points="21.47 14.8 21.34 14.79 21.26 14.89 21.23 14.76 21.11 14.7 21.22 14.63 21.23 14.5 21.33 14.59 21.46 14.56 21.4 14.68 21.47 14.8"/></g></g></svg>