<svg xmlns="http://www.w3.org/2000/svg" width="11.5" height="13.8" viewBox="0 0 11.5 13.8"><g transform="translate(-7 -4)"><path d="M11.6,4a1.107,1.107,0,0,0-1.15,1.15v.575H7v1.15h.575v9.2A1.734,1.734,0,0,0,9.3,17.8h6.9a1.734,1.734,0,0,0,1.725-1.725v-9.2H18.5V5.725H15.05V5.15A1.107,1.107,0,0,0,13.9,4Zm0,1.15h2.3v.575H11.6ZM8.725,6.875h8.05v9.2a.573.573,0,0,1-.575.575H9.3a.573.573,0,0,1-.575-.575ZM9.875,8.6v6.325h1.15V8.6Zm2.3,0v6.325h1.15V8.6Zm2.3,0v6.325h1.15V8.6Zm0,0" fill="#636363"/></g></svg>